<svg width="32" height="32" viewBox="0 0 32 32" fill="none" xmlns="http://www.w3.org/2000/svg">
<path fill-rule="evenodd" clip-rule="evenodd" d="M5 16C5 9.92487 9.92487 5 16 5C22.0751 5 27 9.92487 27 16C27 22.0751 22.0751 27 16 27H5.84895C5.92277 26.8812 5.99161 26.7676 6.05541 26.6588C6.35556 26.1468 6.58561 25.672 6.70152 25.1719C6.78476 24.8128 6.80551 24.6648 6.82421 24.2966C6.85165 23.7565 6.71478 23.1142 6.51389 22.3806C6.3073 21.6263 5.99369 20.6455 5.5891 19.3801L5.58121 19.3555C5.23828 18.283 5 17.1275 5 16ZM3 28C3 27.7899 3.06482 27.5949 3.17555 27.4339C3.69907 26.6486 4.06831 26.0938 4.33002 25.6473C4.59195 25.2005 4.70462 24.9298 4.75317 24.7203C4.78718 24.5736 4.79912 24.5122 4.80643 24.46C4.81373 24.4079 4.81915 24.3455 4.82679 24.1951C4.8363 24.0079 4.78603 23.6433 4.58491 22.9089C4.39084 22.2002 4.09032 21.2596 3.67623 19.9646C3.29249 18.7645 3 17.3962 3 16C3 8.8203 8.8203 3 16 3C23.1797 3 29 8.8203 29 16C29 23.1797 23.1797 29 16 29H4C3.44772 29 3 28.5523 3 28ZM10.6667 17.3333C11.403 17.3333 12 16.7364 12 16C12 15.2636 11.403 14.6667 10.6667 14.6667C9.93029 14.6667 9.33333 15.2636 9.33333 16C9.33333 16.7364 9.93029 17.3333 10.6667 17.3333ZM17.3333 16C17.3333 16.7364 16.7364 17.3333 16 17.3333C15.2636 17.3333 14.6667 16.7364 14.6667 16C14.6667 15.2636 15.2636 14.6667 16 14.6667C16.7364 14.6667 17.3333 15.2636 17.3333 16ZM21.3333 17.3333C22.0697 17.3333 22.6667 16.7364 22.6667 16C22.6667 15.2636 22.0697 14.6667 21.3333 14.6667C20.597 14.6667 20 15.2636 20 16C20 16.7364 20.597 17.3333 21.3333 17.3333Z" fill="#22282F"/>
</svg>
