<svg width="36" height="36" viewBox="0 0 36 36" fill="none" xmlns="http://www.w3.org/2000/svg">
<path fill-rule="evenodd" clip-rule="evenodd" d="M8.19243 3.37491C8.22472 3.37493 8.2574 3.37495 8.29048 3.37495C8.32099 3.37495 8.35108 3.37493 8.38078 3.37492C8.87899 3.3747 9.2665 3.37453 9.62454 3.43771C10.9737 3.6758 12.1166 4.56815 12.6748 5.81925C12.8229 6.15127 12.9167 6.52724 13.0373 7.01063C13.0445 7.03945 13.0518 7.06865 13.0592 7.09825L13.6796 9.57996L13.6932 9.63418C13.9033 10.4746 14.0817 11.1879 14.1674 11.7922C14.2588 12.4356 14.2614 13.0502 14.056 13.681C13.8507 14.3118 13.4867 14.807 13.0341 15.2733C12.609 15.7113 12.0449 16.1828 11.3803 16.7384L11.3374 16.7743L8.91903 18.7961C10.874 22.3352 13.6647 25.126 17.2038 27.0809L19.2256 24.6626L19.2615 24.6197C19.8171 23.955 20.2887 23.3909 20.7267 22.9658C21.1929 22.5133 21.6882 22.1493 22.319 21.9439C22.9498 21.7385 23.5644 21.7412 24.2077 21.8325C24.812 21.9183 25.5252 22.0966 26.3656 22.3067L26.42 22.3203L28.9017 22.9407C28.9313 22.9481 28.9605 22.9554 28.9893 22.9626C29.4727 23.0832 29.8487 23.1771 30.1807 23.3252C31.4318 23.8834 32.3242 25.0263 32.5622 26.3754C32.6254 26.7335 32.6252 27.121 32.625 27.6192C32.625 27.6489 32.625 27.679 32.625 27.7095C32.625 27.7425 32.625 27.7752 32.625 27.8075C32.6253 28.382 32.6256 28.8354 32.5258 29.2821C32.1626 30.9081 30.6576 32.2734 29.0041 32.477C28.5504 32.5328 28.1607 32.4946 27.6758 32.4471C27.6526 32.4448 27.6292 32.4425 27.6056 32.4402C23.6461 32.0539 20.0826 31.0648 16.9787 29.5052C12.3675 27.1883 8.81169 23.6325 6.49476 19.0212C4.93519 15.9173 3.94603 12.3538 3.55971 8.39432C3.55741 8.3707 3.55511 8.34732 3.55284 8.32415C3.50531 7.83929 3.4671 7.4495 3.52295 6.99589C3.72653 5.34234 5.09184 3.83734 6.7178 3.47415C7.16457 3.37436 7.61791 3.3746 8.19243 3.37491ZM19.2865 28.0977C21.8072 29.1779 24.6598 29.8921 27.8241 30.2009C28.4038 30.2574 28.5474 30.2662 28.7291 30.2439C29.4383 30.1565 30.1741 29.489 30.3299 28.7917C30.3688 28.6175 30.375 28.4271 30.375 27.7095C30.375 27.0785 30.3708 26.9044 30.3465 26.7664C30.2383 26.1532 29.8326 25.6337 29.264 25.38C29.136 25.3229 28.9681 25.2766 28.356 25.1236L25.8743 24.5031C24.965 24.2758 24.3659 24.1275 23.8915 24.0602C23.4432 23.9965 23.2046 24.0218 23.0155 24.0834C22.8264 24.1449 22.6187 24.265 22.2937 24.5804C21.9499 24.9141 21.553 25.3866 20.9518 26.1057L19.2865 28.0977ZM7.90227 16.7135L9.89421 15.0481C10.6133 14.4469 11.0859 14.05 11.4196 13.7062C11.7349 13.3813 11.855 13.1735 11.9166 12.9844C11.9781 12.7954 12.0034 12.5567 11.9398 12.1084C11.8724 11.634 11.7241 11.035 11.4968 10.1257L10.8764 7.64395C10.7234 7.03184 10.6771 6.86394 10.62 6.73599C10.3663 6.16731 9.84676 5.7617 9.23352 5.65348C9.09555 5.62913 8.92144 5.62495 8.29048 5.62495C7.57284 5.62495 7.38243 5.63114 7.20829 5.67004C6.51095 5.8258 5.8434 6.56166 5.75609 7.27083C5.73372 7.45253 5.74252 7.59613 5.79908 8.17583C6.10781 11.3401 6.82204 14.1928 7.90227 16.7135Z" fill="#D8AE5F"/>
</svg>
