<svg width="36" height="36" viewBox="0 0 36 36" fill="none" xmlns="http://www.w3.org/2000/svg">
<path fill-rule="evenodd" clip-rule="evenodd" d="M22.5 3.375H22.422C21.0743 3.37496 19.9505 3.37492 19.0583 3.49487C18.1166 3.62148 17.2664 3.89998 16.5832 4.58319C15.9 5.26639 15.6215 6.11659 15.4949 7.05828C15.4075 7.70849 15.3838 8.48173 15.3774 9.375H9.39715L9.3457 9.375C8.55991 9.37498 7.89124 9.37496 7.33567 9.42896C6.74375 9.48649 6.19468 9.61121 5.6662 9.91043C5.13772 10.2096 4.74828 10.6163 4.39441 11.0943C4.06227 11.5429 3.71826 12.1163 3.314 12.7901L3.31399 12.7901L3.28752 12.8342L1.39038 15.9961L1.32806 16.0999C0.963345 16.7068 0.675253 17.1863 0.524688 17.7299C0.374124 18.2734 0.374493 18.8328 0.37496 19.5409L0.375012 19.6619V22.5L0.375012 22.5379C0.375001 23.2046 0.374992 23.7611 0.406167 24.2181C0.43862 24.6937 0.508585 25.143 0.689009 25.5786C1.10767 26.5893 1.9107 27.3923 2.92144 27.811C3.35703 27.9914 3.80631 28.0614 4.28197 28.0938C4.46755 28.1065 4.66957 28.114 4.88873 28.1185C5.07708 30.6388 7.18159 32.625 9.75001 32.625C12.3162 32.625 14.4193 30.6422 14.6108 28.125H19.8892C20.0807 30.6422 22.1838 32.625 24.75 32.625C27.317 32.625 29.4206 30.641 29.611 28.1227C30.5102 28.1165 31.2881 28.093 31.9417 28.0051C32.8834 27.8785 33.7336 27.6 34.4168 26.9168C35.1 26.2336 35.3785 25.3834 35.5051 24.4417C35.6251 23.5496 35.6251 22.4257 35.625 21.078V21V10.5V10.422C35.6251 9.07427 35.6251 7.95045 35.5051 7.05828C35.3785 6.11659 35.1 5.26639 34.4168 4.58319C33.7336 3.89998 32.8834 3.62148 31.9417 3.49487C31.0496 3.37492 29.9257 3.37496 28.578 3.375H28.5H22.5ZM15.375 12V11.625H9.39715C8.54598 11.625 7.98725 11.6262 7.55333 11.6684C7.14368 11.7082 6.93405 11.7782 6.77477 11.8684C6.6155 11.9586 6.44764 12.1023 6.20273 12.4331C5.94332 12.7835 5.6548 13.262 5.21688 13.9918L3.48698 16.875H10.5C11.946 16.875 12.9174 16.8726 13.6419 16.7752C14.3341 16.6821 14.6304 16.5213 14.8258 16.3258C15.0213 16.1304 15.1821 15.8341 15.2752 15.1419C15.3726 14.4174 15.375 13.446 15.375 12ZM17.625 12L17.625 12.078V12.078C17.6251 13.4257 17.6251 14.5496 17.5051 15.4417C17.3785 16.3834 17.1 17.2336 16.4168 17.9168C15.7336 18.6 14.8834 18.8785 13.9417 19.0051C13.0496 19.1251 11.9257 19.125 10.578 19.125L10.5 19.125H2.62722C2.62556 19.2718 2.62501 19.4478 2.62501 19.6619V22.5C2.62501 23.2143 2.62562 23.6937 2.65095 24.0649C2.67559 24.426 2.7198 24.6018 2.76774 24.7175C2.95804 25.177 3.32305 25.542 3.78248 25.7323C3.89821 25.7802 4.07403 25.8244 4.43513 25.8491C4.65827 25.8643 4.92052 25.8706 5.2494 25.8732C5.9845 24.1124 7.72275 22.875 9.75001 22.875C11.778 22.875 13.5167 24.1133 14.2514 25.875H20.2486C20.9833 24.1133 22.722 22.875 24.75 22.875C26.7777 22.875 28.5162 24.1129 29.251 25.8742C30.2949 25.8709 31.0506 25.8547 31.6419 25.7752C32.3341 25.6821 32.6304 25.5213 32.8258 25.3258C33.0213 25.1304 33.1821 24.8341 33.2752 24.1419C33.3726 23.4174 33.375 22.446 33.375 21V10.5C33.375 9.05399 33.3726 8.08265 33.2752 7.35809C33.1821 6.6659 33.0213 6.36965 32.8258 6.17418C32.6304 5.9787 32.3341 5.81787 31.6419 5.72481C30.9174 5.62739 29.946 5.625 28.5 5.625H22.5C21.054 5.625 20.0827 5.62739 19.3581 5.72481C18.6659 5.81787 18.3697 5.9787 18.1742 6.17418C17.9787 6.36965 17.8179 6.6659 17.7248 7.35809C17.6274 8.08265 17.625 9.05399 17.625 10.5V12ZM9.75001 25.125C8.30026 25.125 7.12501 26.3003 7.12501 27.75C7.12501 29.1998 8.30026 30.375 9.75001 30.375C11.1998 30.375 12.375 29.1998 12.375 27.75C12.375 26.3003 11.1998 25.125 9.75001 25.125ZM24.75 25.125C23.3003 25.125 22.125 26.3003 22.125 27.75C22.125 29.1998 23.3003 30.375 24.75 30.375C26.1998 30.375 27.375 29.1998 27.375 27.75C27.375 26.3003 26.1998 25.125 24.75 25.125Z" fill="#D8AE5F"/>
</svg>
